<svg version="1.2" xmlns="http://www.w3.org/2000/svg" viewBox="0 0 3085 506" width="3085" height="506">
	<title>LOGISTOCEAN-logo</title>
	<style>
		.s0 { fill: #2d2f79 } 
		.s1 { fill: #28abe2 } 
		.s2 { opacity: .6;fill: #28abe2 } 
	</style>
	<g>
		<path class="s0" d="m1157 205.9c-3.7 36.8-18 72.9-43.5 103.2-23.7 28.2-53.8 47.8-86.4 58.4-35.3-14.7-90.2-36.5-157.6-59.5-16.1-5.5-37.2-12.6-62.9-20.6-46.3-14.5-107.1-32.2-178.4-49.3-60.7-14.5-113.4-25-158.1-32.9q-0.3 0-0.6 0-6.6-1.3-12.9-2.3-1-0.2-2-0.4c-31.6-5.5-59.1-9.8-82.3-13.4-95.9-14.7-172.4-22.3-235-28.5-23.4-2.3-45.3-4.4-65.6-6.1 0.7-0.2 1.3-0.4 1.9-0.5 0 0 12.5-3.3 26.2-4.5 27.3-2.2 152.4 5.6 322.2 20.6q130-64.4 259.9-128.9c15.8-8.5 36.5-18 61.6-25.3q3.8-1.1 7.8-2.1c33.7-8.9 63.3-10.6 85.1-10.2 29.8-0.7 59.7-1.3 89.6-1.9 25.3-0.6 50.6-1.1 75.9-1.7h0.8c0 0-0.1 0.1-0.1 0.1-106.3 106.3-135.7 139.2-194.4 205.2-4.9 5.5-15 17.2-13.4 31 0.4 3.3 2.6 17.4 30.7 33.9 39.6 23.2 80.9 21.9 88.4 21.9 61.1 0 119.4-39.4 154.2-84.3l88.9-1.9z"/>
		<path class="s1" d="m788.1 455h-296.1l-87.4-0.3 0.2-0.1q-116.6-0.4-233.2-0.8c-3.4-0.1-8.2-0.3-14.1-1-12.8-1.4-17.8-2.6-21.9-5-1.6-1-5.2-3.1-8-7.2-0.9-1.3-1.4-2.4-1.8-3.1l-45.7-99.8q-1.3-3-2.5-6l-6.2-12.9-3.9-8.3q0.1 0 0.1 0 0.7 0.2 1.4 0.2c62.6 6.2 139.1 13.8 235 28.5 57.1 8.9 140 21.8 247.7 47.6 106.8 25.7 190.1 52.5 236.4 68.2z"/>
		<path class="s0" d="m1064.3 397.5c-19-8.5-93.1-41-196.3-76.2-45.1-15.5-130.7-43.3-241.4-69.9-107.8-25.8-190.6-38.7-247.8-47.6-34.1-5.2-65.8-9.6-95.3-13.3-53.3-6.7-99.3-11.2-139.6-15.2-57.9-5.8-107.1-9.7-143.9-12.4l61.2 133.6c3.4 0.3 6.9 0.7 10.3 1 62.6 6.2 139.1 13.8 235 28.5 36.6 5.7 83.7 13.1 141.2 24.4 0-2.9 0.6-8.2 1.9-18.6l1.9-14.4c0.1-0.9-0.2-1.7-0.7-2.4-0.6-0.9-1.5-1.2-2.2-1.3l-0.7-0.2-49.3-11.6 1-4c0.3-1.4 0.6-3.1 0.9-4.7v-0.5c0.4-3.8 0.5-7.6 0.1-11.2-0.1-1.8-0.4-3.4-0.7-4.8-4.2-20.4-20.9-35.9-41.4-38.4l-9.2-1.3-9.8 76.3-13.3-1.6 11.5-89.1h4.1l18.3 2.3c8.9 1.1 17.2 4.1 24.7 8.7 6.4 3.9 11.9 8.9 16.6 14.9 9.5 12.4 14.1 27.7 12.7 43.3l36.8 8.7c8.8 1.2 15.1 9.6 13.9 18.6l-4.3 33.9c28.8 5.7 60.1 12.5 93.7 20.7 110.7 26.5 196.3 54.4 241.4 69.8q17.1 5.9 33 11.5h355.9c-31.8-16.4-72.4-36.4-120.2-57.5zm-734.6-173.2v2.1l-10.8 84.3-193.5-24.8 24.4-10.3 157.6 20.1 2.4-18.4 0.5-4.2 1.6-13.3 0.4-2.3 3.1-24.7-49.9-6.5 24.7-10.3 40 5.1-0.5 3.2zm-114.1 23.2h0.4l88.6 11.4-1.8 13.3-111.6-14.3c0 0 24.4-10.4 24.4-10.4z"/>
	</g>
	<g>
		<path class="s0" d="m1315 323.9v-122.9h-26v148.8h126.1v-25.9z"/>
		<path class="s0" d="m1537.9 201.1h-36.2c-41.6 0-72.3 29-72.3 72.8 0 43.8 30.7 76 72.3 76h36.2c19.3 0 36.2-6.8 48.8-18.3 15.1-13.8 24.1-34.2 24.1-57.7 0-43.2-29.9-72.8-72.9-72.8zm0 122.8h-36.2c-26.8 0-46.3-20.7-46.3-48.8 0-28 19.7-48.1 46.3-48.1h36.2q0.4 0 0.9 0c27 0.5 46 20.4 46 48.1 0 12-3.6 22.7-9.8 30.9-8.3 11.1-21.4 17.8-37.1 17.8z"/>
		<path class="s0" d="m1696.4 263.3v21.9h67.1v38.7h-63.6c-26.9 0-46.3-20.7-46.3-48.8 0-28 19.7-48.1 46.3-48.1h80.6v-25.9h-80.6c-41.6 0-72.3 29-72.3 72.8 0 43.8 30.7 76 72.3 76h89.8v-86.6h-93.3z"/>
		<path fill-rule="evenodd" class="s0" d="m1841.1 201.1v148.8h-26v-148.8z"/>
		<path class="s0" d="m1979.9 263.3h-68.2c-11.4 0-18.6-6.8-18.6-18 0-11.3 7-18.3 18.8-18.3h106.9v-25.9h-106.9c-29.6 0-45.8 17.8-45.8 41.7 0 24 17.4 42.4 45.4 42.4h68.4c13.9 0 21.7 6.5 21.7 19.2 0 11.7-7.8 19.5-21.7 19.5h-111.6v26h111.6c31.1 0 46.3-18.7 46.3-43.6 0-28.9-16.2-43-46.3-43z"/>
		<path class="s0" d="m2039.7 201.1v25.9h56.5v122.9h26v-122.9h56.5v-25.9z"/>
		<path class="s1" d="m2296.6 201.1h-36.2c-41.6 0-72.3 29-72.3 72.8 0 43.8 30.7 76 72.3 76h36.2c42.4 0 72.9-32.8 72.9-76 0-43.2-29.9-72.8-72.9-72.8zm0 122.8h-36.2c-26.8 0-46.3-20.7-46.3-48.8 0-28 19.7-48.1 46.3-48.1h36.2c27.4 0 46.9 20.1 46.9 48.1 0 28.1-19.5 48.8-46.9 48.8z"/>
		<path class="s1" d="m2458.6 227h80.6v-25.9h-80.6c-41.6 0-72.3 29-72.3 72.8 0 43.8 30.7 76 72.3 76h80.6v-26h-80.6c-26.9 0-46.3-20.7-46.3-48.7 0-28.1 19.6-48.1 46.3-48.1z"/>
		<path fill-rule="evenodd" class="s1" d="m2690.8 285.2h-85.7v-22h72.8l9.7 16.6 3.2 5.4z"/>
		<path class="s1" d="m2816.4 207.4c-3.1-5.1-6.8-8.4-12.5-8.4-5.7 0-9.6 3.3-12.7 8.4l-85.5 142.4h29.6l67.6-114.2 33.1 55.7h-45.6l-12.3 21.1h70.4l22.3 37.4h31.3l-85.7-142.4z"/>
		<path class="s1" d="m3046.9 199.8v108.9l-105-104.2c-3.9-3.9-7.2-5.3-11.1-5.3-8.1 0-13.3 5.9-13.3 15.6v135.1h24.8v-108.9l104.6 105.2c3.7 3.6 7.6 5.5 11.9 5.5 7.6 0 12.9-5.8 12.9-15.6v-136.3h-24.8z"/>
		<path fill-rule="evenodd" class="s2" d="m2677.9 263.2h-31.8v-0.1h31.7l0.1 0.1z"/>
		<path fill-rule="evenodd" class="s1" d="m2705.7 349.8h-145.4v-148.8h115.7l14.7 26.1h-104.6v96.8h104.3l3 5 12.3 20.9z"/>
	</g>
</svg>