<?xml version="1.0" encoding="UTF-8"?>
<svg id="Layer_1" data-name="Layer 1" xmlns="http://www.w3.org/2000/svg" viewBox="0 0 1186.39 616.69">
  <defs>
    <style>
      .cls-1 {
        fill: #2d2f79;
      }

      .cls-2 {
        opacity: .6;
      }

      .cls-2, .cls-3 {
        fill: #28abe2;
      }
    </style>
  </defs>
  <g>
    <path class="cls-1" d="M1156.99,205.94c-3.64,36.74-18,72.83-43.53,103.2-23.67,28.18-53.75,47.75-86.32,58.39-35.34-14.69-90.29-36.54-157.61-59.54-16.1-5.5-37.28-12.58-62.9-20.61-46.34-14.48-107.17-32.15-178.47-49.24-60.62-14.52-113.34-24.99-158.07-32.9-.21-.04-.41-.08-.58-.08-4.39-.83-8.69-1.57-12.91-2.28-.66-.12-1.32-.25-1.99-.37-31.65-5.5-59.13-9.77-82.34-13.37-95.88-14.77-172.34-22.34-234.95-28.55-23.38-2.32-45.35-4.34-65.67-6.12.7-.17,1.37-.33,1.9-.5,0,0,12.58-3.31,26.23-4.43,27.27-2.28,152.4,5.54,322.22,20.61,86.65-42.95,173.29-85.94,259.94-128.94,15.77-8.52,36.41-17.96,61.53-25.28,2.57-.74,5.17-1.45,7.82-2.15,33.68-8.85,63.27-10.55,85.07-10.18,29.88-.66,59.71-1.28,89.59-1.94,25.32-.54,50.61-1.08,75.93-1.66h.79s-.08.08-.12.12c-106.26,106.26-135.69,139.15-194.32,205.16-4.94,5.56-14.99,17.19-13.45,30.99.37,3.31,2.59,17.39,30.75,33.91,39.61,23.24,80.91,21.89,88.36,21.89,61.12,0,119.44-39.38,154.2-84.23l88.88-1.9Z"/>
    <path class="cls-3" d="M788.13,455h-296.12l-87.36-.34.2-.04c-77.75-.29-155.5-.58-233.21-.87-3.39-.05-8.28-.25-14.16-.91-12.82-1.45-17.78-2.67-21.85-5.05-1.64-.96-5.18-3.07-8.04-7.22-.85-1.24-1.43-2.34-1.8-3.11l-45.7-99.76c-.84-2.01-1.67-4.01-2.51-6.02l-6.15-12.87-3.95-8.28c.06,0,.12.02.17.02.44.08.91.12,1.36.15,62.61,6.2,139.07,13.77,234.95,28.54,57.15,8.82,140.03,21.77,247.78,47.59,106.78,25.64,190.08,52.45,236.39,68.16Z"/>
    <path class="cls-1" d="M1064.28,397.47c-18.95-8.44-93.13-40.93-196.32-76.19-45.11-15.47-130.65-43.32-241.38-69.87-107.76-25.78-190.58-38.74-247.76-47.57-34.17-5.26-65.87-9.61-95.34-13.31-53.27-6.69-99.3-11.26-139.59-15.24-57.86-5.77-107.05-9.69-143.88-12.39l61.21,133.61c3.39.31,6.85.67,10.29.98,62.59,6.25,139.09,13.79,234.94,28.55,36.6,5.67,83.78,13.02,141.22,24.36,0-2.89.64-8.25,1.93-18.56l1.87-14.44c.13-.9-.13-1.68-.64-2.45-.64-.84-1.55-1.16-2.26-1.22l-.7-.19-49.25-11.67.97-3.93c.33-1.48.64-3.1.9-4.77v-.52c.45-3.74.51-7.54.13-11.15-.13-1.81-.38-3.36-.7-4.84-4.26-20.37-20.89-35.83-41.45-38.41l-9.16-1.23-9.79,76.31-13.28-1.61,11.41-89.14h4.19l18.3,2.32c8.84,1.1,17.15,4.07,24.69,8.7,6.32,3.87,11.86,8.9,16.57,14.89,9.54,12.44,14.05,27.72,12.69,43.32l36.8,8.7c8.76,1.22,15.08,9.6,13.86,18.56l-4.26,33.9c28.81,5.74,60.08,12.57,93.72,20.69,110.73,26.56,196.26,54.4,241.38,69.81,11.39,3.92,22.41,7.76,33.03,11.52h355.84c-31.79-16.43-72.36-36.4-120.16-57.54ZM215.56,247.54h.45l88.55,11.34-1.74,13.28-111.63-14.24,24.36-10.38ZM329.71,224.27l-.07,2.14-10.76,84.3-193.49-24.75,24.36-10.38,157.59,20.18,2.39-18.44.51-4.19,1.67-13.27.33-2.32,3.15-24.75-49.88-6.44,24.69-10.31,39.96,5.09-.45,3.15Z"/>
  </g>
  <g>
    <path class="cls-1" d="M21.64,598.23v-81.44H4.4v98.67h83.61v-17.23H21.64Z"/>
    <path class="cls-1" d="M169.45,516.8h-24.02c-27.55,0-47.91,19.27-47.91,48.32s20.36,50.36,47.91,50.36h24.02c12.81,0,23.98-4.51,32.33-12.14,9.99-9.1,15.98-22.63,15.98-38.22,0-28.63-19.82-48.32-48.32-48.32ZM169.45,598.23h-24.02c-17.77,0-30.68-13.71-30.68-32.3s13.03-31.9,30.68-31.9h24.02c.19,0,.39,0,.59,0,17.88.28,30.5,13.5,30.5,31.89,0,7.95-2.36,15.01-6.49,20.48-5.51,7.33-14.19,11.82-24.59,11.82Z"/>
    <path class="cls-1" d="M274.52,558.05v14.52h44.51v25.66h-42.21c-17.78,0-30.67-13.71-30.67-32.3s13.03-31.9,30.67-31.9h53.48v-17.23h-53.48c-27.54,0-47.9,19.27-47.9,48.32s20.36,50.36,47.9,50.36h59.59v-57.41h-61.89Z"/>
    <path class="cls-1" d="M353.25,516.8v98.67h17.24v-98.67h-17.24Z"/>
    <path class="cls-1" d="M462.51,558.05h-45.2c-7.6,0-12.35-4.47-12.35-11.93s4.62-12.09,12.48-12.09h70.85v-17.23h-70.85c-19.68,0-30.4,11.81-30.4,27.69s11.54,28.09,30.13,28.09h45.34c9.22,0,14.39,4.35,14.39,12.76,0,7.73-5.16,12.9-14.39,12.9h-73.98v17.23h73.98c20.62,0,30.67-12.35,30.67-28.91,0-19.14-10.72-28.51-30.67-28.51Z"/>
    <path class="cls-1" d="M502.15,516.8v17.23h37.47v81.44h17.23v-81.44h37.46v-17.23h-92.16Z"/>
    <path class="cls-3" d="M672.5,516.8h-24.03c-27.54,0-47.9,19.27-47.9,48.32s20.36,50.36,47.9,50.36h24.03c28.09,0,48.31-21.72,48.31-50.36s-19.81-48.32-48.31-48.32ZM672.5,598.23h-24.03c-17.77,0-30.67-13.71-30.67-32.3s13.03-31.9,30.67-31.9h24.03c18.18,0,31.07,13.31,31.07,31.9s-12.9,32.3-31.07,32.3Z"/>
    <path class="cls-3" d="M779.87,534.03h53.47v-17.23h-53.47c-27.55,0-47.9,19.27-47.9,48.32s20.35,50.36,47.9,50.36h53.47v-17.23h-53.47c-17.78,0-30.67-13.71-30.67-32.3s13.02-31.9,30.67-31.9Z"/>
    <polygon class="cls-3" points="933.89 572.6 877.04 572.6 877.04 558.03 925.32 558.03 931.76 568.99 933.89 572.6"/>
    <path class="cls-3" d="M1017.13,521c-2.03-3.39-4.47-5.56-8.27-5.56s-6.39,2.16-8.42,5.56l-56.71,94.43v.03s-.02,0-.02,0h19.68l44.79-75.74,21.98,36.92h-30.27l-8.15,13.97h46.69l14.8,24.84h20.76l-56.88-94.47Z"/>
    <path class="cls-3" d="M1169.98,515.99v72.2l-69.63-69.08c-2.58-2.58-4.75-3.53-7.33-3.53-5.42,0-8.82,3.93-8.82,10.32v89.57h16.42v-72.21l69.36,69.76c2.44,2.44,5.02,3.66,7.87,3.66,5.03,0,8.55-3.81,8.55-10.32v-90.38h-16.42Z"/>
    <polygon class="cls-2" points="925.32 558.03 904.24 558.03 904.24 557.97 925.25 557.97 925.32 558.03"/>
    <polygon class="cls-3" points="943.75 615.46 847.33 615.46 847.33 516.78 924.03 516.78 933.83 534.05 864.41 534.05 864.41 598.25 933.63 598.25 935.57 601.54 943.75 615.46"/>
  </g>
</svg>